<?xml version="1.0" encoding="UTF-8"?>
<svg id="Layer_1" data-name="Layer 1" xmlns="http://www.w3.org/2000/svg" viewBox="0 0 160 42.41">
  <defs>
    <style>
      .cls-1 {
        fill: #f87e85;
      }
    </style>
  </defs>
  <path class="cls-1" d="M28.09,36.68v1.08H2.04v-.94L22.73,6.46H4.29v-1.08H28.45v1.21L7.67,36.68H28.09Z"/>
  <path class="cls-1" d="M45.41,36.64h9.94v1.12h-18.8V5.38h18.89v1.08h-14.26v13.72h9.36v1.12h-9.36v15.34h4.23Z"/>
  <path class="cls-1" d="M90.62,5.38l-11.83,19.52v12.86h-4.63v-12.55L61.74,5.38h5.89l10.53,18.22,10.48-18.22h1.98Z"/>
  <path class="cls-1" d="M105.37,5.38c3.06,0,5.53,.18,7.42,.76,1.89,.54,3.46,1.35,4.63,2.61,1.17,1.3,1.75,2.83,1.75,4.63,0,2.07-.76,3.91-2.29,5.35-1.57,1.48-3.82,2.65-6.79,3.06,1.3,.63,3.46,1.48,6.43,5.49,0,0,2.38,3.24,5.35,10.48h-3.69c-.36-1.48-5.13-15.38-13.9-15.38h-1.39v15.38h-4.59V5.38h7.06Zm1.3,15.92c1.26,0,2.34-.45,3.24-.72,.94-.27,1.71-.9,2.25-1.44,.58-.54,1.03-1.26,1.35-2.11,.36-.9,.49-1.93,.49-3.19,0-2.25-.54-3.96-1.66-5.31s-3.69-1.8-7.42-1.8h-2.02v14.57h3.78Z"/>
  <path class="cls-1" d="M148.02,25.89h-11.92l-4.54,11.88h-1.71l13.4-32.39h.94l13.76,32.39h-5.08c-1.71-4.18-2.43-5.94-2.43-5.94l-2.43-5.94Zm-.4-1.08l-5.67-13.58-5.53,13.58h11.2Z"/>
</svg>